<?xml version="1.0" encoding="UTF-8"?>
<svg version="1.1" xmlns="http://www.w3.org/2000/svg" width="2560" height="1120">
<path d="M0 0 C0.91245483 -0.00686325 1.82490967 -0.0137265 2.76501465 -0.02079773 C5.78620896 -0.03912452 8.80688695 -0.03522019 11.828125 -0.02954102 C13.92415538 -0.03409969 16.02018425 -0.03940431 18.11621094 -0.04542542 C22.51112944 -0.05436786 26.90586635 -0.05192011 31.30078125 -0.04199219 C36.94040109 -0.03049563 42.57939546 -0.05071902 48.21893311 -0.07990932 C52.54772948 -0.09823005 56.87637479 -0.09798721 61.2052002 -0.0922718 C63.28488035 -0.09211811 65.36457044 -0.09820172 67.44421387 -0.11056328 C70.34862861 -0.12539515 73.25187261 -0.11485415 76.15625 -0.09765625 C77.01972046 -0.10732422 77.88319092 -0.11699219 78.77282715 -0.12695312 C84.57502321 -0.05479147 84.57502321 -0.05479147 87.04823303 2.20085144 C87.97515221 4.1837677 88.82067288 6.07023515 89.47827148 8.15698242 C89.71463318 8.8937471 89.95099487 9.63051178 90.19451904 10.38960266 C90.44356995 11.19358994 90.69262085 11.99757721 90.94921875 12.82592773 C91.35989594 14.11861824 91.35989594 14.11861824 91.77886963 15.43742371 C92.69884077 18.34058905 93.60724136 21.24724266 94.515625 24.15405273 C95.17560009 26.24611659 95.83617967 28.33798984 96.49731445 30.4296875 C98.31607482 36.19307908 100.12368271 41.95990983 101.92797852 47.72784424 C103.0893193 51.43983304 104.25245117 55.15125651 105.41601562 58.86254883 C111.10033441 76.99755978 116.76111435 95.13988949 122.4171524 113.28373718 C125.53487727 123.28499982 128.65311808 133.28610021 131.77460003 143.28619099 C132.82398006 146.64826498 133.87279427 150.01051274 134.92001343 153.3732605 C139.20510149 167.1307066 143.5311936 180.87341247 147.96484375 194.58374023 C148.17028242 195.2190416 148.37572109 195.85434296 148.58738518 196.50889587 C149.00568679 197.80235411 149.42399414 199.09581049 149.84230709 200.38926506 C153.98383095 213.19618337 158.1016073 226.0105047 162.16423798 238.84269238 C163.34577847 242.5737732 164.53269313 246.30298304 165.73071289 250.02880859 C166.92089284 253.73083361 168.09822491 257.43671604 169.26656532 261.14568901 C169.70657746 262.53494666 170.15109316 263.92278701 170.6003933 265.30906868 C171.22005047 267.22360777 171.82173417 269.14393594 172.42260742 271.06445312 C172.76772873 272.14787491 173.11285004 273.23129669 173.46842957 274.34754944 C174.1369904 277.69915465 173.84476486 280.09625249 173.078125 283.40405273 C169.54863007 284.58055105 166.7341593 284.54555261 163.00805664 284.56518555 C162.29227951 284.57015045 161.57650238 284.57511536 160.83903503 284.58023071 C158.47210732 284.59483141 156.10524659 284.60165011 153.73828125 284.60717773 C152.09305316 284.61293002 150.4478251 284.61868775 148.80259705 284.62445068 C145.35350228 284.63495409 141.90443078 284.64080137 138.45532227 284.64428711 C134.03555348 284.64977662 129.61609202 284.67381699 125.19641972 284.70225906 C121.79836628 284.720879 118.40038706 284.72609065 115.00228691 284.72762299 C113.37279006 284.73065049 111.74329454 284.73868235 110.11384773 284.75180817 C107.8348559 284.7688589 105.55661759 284.76699142 103.27758789 284.76049805 C101.9809169 284.76414368 100.68424591 284.76778931 99.34828186 284.77154541 C96.078125 284.40405273 96.078125 284.40405273 92.078125 281.40405273 C88.778125 269.85405273 85.478125 258.30405273 82.078125 246.40405273 C53.038125 246.40405273 23.998125 246.40405273 -5.921875 246.40405273 C-9.221875 257.62405273 -12.521875 268.84405273 -15.921875 280.40405273 C-17.921875 283.40405273 -17.921875 283.40405273 -20.921875 284.40405273 C-23.28222474 284.50424914 -25.64534723 284.54238339 -28.0078125 284.54931641 C-29.08388763 284.55435432 -29.08388763 284.55435432 -30.18170166 284.55949402 C-32.5534437 284.56899441 -34.92511511 284.57094651 -37.296875 284.57202148 C-38.944499 284.57523414 -40.5921227 284.57859822 -42.23974609 284.58210754 C-45.69304059 284.58809613 -49.14631006 284.58994766 -52.59960938 284.58935547 C-57.02837609 284.58925373 -61.4569829 284.60291889 -65.88571167 284.62012768 C-69.28801209 284.6312346 -72.69027364 284.6332751 -76.09259033 284.63274574 C-77.72569328 284.63392734 -79.35879719 284.63835913 -80.99188232 284.64607811 C-83.27334888 284.65585394 -85.55446555 284.65300991 -87.8359375 284.64697266 C-89.1348291 284.64839767 -90.4337207 284.64982269 -91.77197266 284.65129089 C-94.921875 284.40405273 -94.921875 284.40405273 -97.921875 282.40405273 C-97.38779856 274.72973848 -95.43163882 267.97016134 -93.046875 260.67749023 C-92.43870517 258.78049901 -91.83054014 256.88350625 -91.2225666 254.9864521 C-90.57481824 252.97057716 -89.92299714 250.95606151 -89.2699585 248.94189453 C-87.20561149 242.57351219 -85.16708654 236.19684287 -83.12609482 229.82094574 C-82.42671042 227.63694355 -81.72633556 225.45326058 -81.02590942 223.26959229 C-76.16501271 208.10136864 -71.467548 192.88392146 -66.80126953 177.65472412 C-62.78800335 164.5567678 -58.68133795 151.49324854 -54.45924377 138.46118927 C-49.78095691 124.01819616 -45.21912944 109.53965078 -40.6769104 95.05337524 C-39.2605858 90.53693539 -37.84068652 86.02162287 -36.4206543 81.50634766 C-32.32351058 68.47419939 -28.2326503 55.44038026 -24.20379639 42.38693237 C-22.72729613 37.60416306 -21.24485075 32.82324516 -19.76226807 28.0423584 C-18.75375218 24.77924867 -17.75544762 21.51312684 -16.75732422 18.24682617 C-16.15254593 16.29516518 -15.54727214 14.34365763 -14.94140625 12.39233398 C-14.54446815 11.07568504 -14.54446815 11.07568504 -14.13951111 9.73243713 C-13.88955887 8.93482468 -13.63960663 8.13721222 -13.38208008 7.31542969 C-13.17086014 6.62721634 -12.9596402 5.93900299 -12.74201965 5.22993469 C-10.14060804 -0.56156868 -5.68508599 -0.02963883 0 0 Z M36.078125 93.40405273 C32.78813572 104.91814862 29.51016452 116.43559074 26.24752712 127.95746899 C24.73220356 133.30733418 23.21275262 138.65595474 21.68383789 144.00195312 C20.20872846 149.1603909 18.74450274 154.32180385 17.28779793 159.48546791 C16.72990149 161.45575318 16.1680806 163.42493155 15.60229301 165.39296532 C14.81097598 168.1479911 14.03365741 170.90660921 13.25952148 173.66650391 C13.02215775 174.48074326 12.78479401 175.2949826 12.54023743 176.13389587 C12.33125824 176.88962891 12.12227905 177.64536194 11.90696716 178.42399597 C11.72168677 179.07570361 11.53640638 179.72741125 11.34551144 180.39886761 C10.89967403 182.91582454 10.89967403 182.91582454 12.078125 187.40405273 C29.238125 187.40405273 46.398125 187.40405273 64.078125 187.40405273 C65.36102871 183.55534161 64.57392094 181.85366792 63.45092773 177.97094727 C63.26564011 177.32149139 63.08035248 176.67203552 62.88945007 176.00289917 C62.27164695 173.84513138 61.64171192 171.69110254 61.01171875 169.53686523 C60.57550428 168.02226083 60.14005656 166.50743542 59.70533752 164.99240112 C58.55287372 160.98364815 57.39016908 156.97793581 56.22528076 152.97277832 C55.06546962 148.97892621 53.91484941 144.98243143 52.76367188 140.98608398 C51.00176232 134.87311305 49.23502815 128.76156108 47.46435547 122.65112305 C44.64210289 112.90975651 41.85325945 103.15894053 39.078125 93.40405273 C38.088125 93.40405273 37.098125 93.40405273 36.078125 93.40405273 Z " fill="#FFFFFF" transform="translate(844.921875,493.595947265625)"/>
<path d="M0 0 C4.8965989 3.24879506 9.0637706 7.32811061 11 13 C11.10960114 14.93720018 11.21325501 16.87474166 11.3125 18.8125 C11.92709711 23.19082452 12.57665041 24.6324277 15.96484375 27.57421875 C18.53057261 29.29375545 21.18078419 30.86071846 23.8359375 32.4375 C48.72864931 47.25045728 66.86343653 75.09652063 74.4140625 102.68310547 C82.01310008 132.73096656 79.46180614 167.12362356 69.85546875 196.5 C62.49675082 219.79827304 67.11460838 243.70734523 78 265 C82.669179 273.77957641 88.13724813 281.91338767 94.28222656 289.72680664 C99.18428719 296.10898835 101.6592594 302.43895657 101.3359375 310.546875 C100.67190927 315.39582532 99.1202243 319.25447955 95.27319336 322.42163086 C88.45599328 326.9117165 81.27039639 330.62521884 74 334.3125 C71.56113835 335.55595902 69.12417041 336.80302412 66.6875 338.05078125 C65.61886719 338.59387939 64.55023437 339.13697754 63.44921875 339.6965332 C61.11890405 340.78375985 61.11890405 340.78375985 60 342 C59.44321109 346.54424199 59.44321109 346.54424199 61.08203125 350.69140625 C62.35589893 352.15617053 63.67663149 353.57979965 65 355 C66.99384031 360.98152094 66.73129783 366.98982941 64.3125 372.8125 C61.76300174 377.78007908 59.55758238 381.1742185 54.01171875 382.96484375 C51.01874189 383.72803527 48.03057742 384.40548481 45 385 C45.34933594 385.47050781 45.69867187 385.94101562 46.05859375 386.42578125 C46.51363281 387.04839844 46.96867187 387.67101562 47.4375 388.3125 C48.11619141 389.23482422 48.11619141 389.23482422 48.80859375 390.17578125 C51.6013674 394.45192975 51.68037079 399.07731723 51 404 C48.45971102 410.72866789 43.03692913 415.36223818 37 419 C34.62196499 419.87650746 32.32416484 420.56869822 29.84765625 421.1015625 C27.7662843 421.87398498 27.7662843 421.87398498 26.9296875 424.2890625 C26.62289063 425.18367188 26.31609375 426.07828125 26 427 C25.048825 428.60030557 24.06842085 430.18352783 23.0625 431.75 C19.08205931 438.33898192 17.25636698 444.28983049 15.984375 451.87890625 C14.44140174 460.98580279 12.64287059 468.31960699 5.25 474.375 C-1.7925111 479.12276029 -9.54441671 481.37623426 -18 480 C-25.60053511 477.89532466 -32.93874776 474.89172202 -40.1875 471.8125 C-52.1958355 466.94370298 -63.71341535 465.60840734 -75.95703125 470.05078125 C-80.58559603 472.20133812 -84.07293341 475.19109292 -86 480 C-86.76343833 486.00835878 -86.29161902 490.78826988 -83 496 C-82.45472656 495.855625 -81.90945313 495.71125 -81.34765625 495.5625 C-71.55745848 493.15260517 -64.07291941 493.18518373 -55 498 C-48.86047447 501.81485082 -45.10517723 507.10021208 -43 514 C-41.7388849 522.94058837 -42.55810816 530.63898689 -48 538 C-53.00398737 543.52741701 -58.43276406 547.58426442 -66.046875 548.27734375 C-75.46457696 548.54859093 -82.34327943 547.25343988 -89.390625 540.8203125 C-92.38137701 537.43756872 -96 532.6623074 -96 528 C-96.59498291 527.9575415 -97.18996582 527.91508301 -97.80297852 527.87133789 C-115.33771315 526.39804547 -132.19886741 520.52745381 -148 513 C-148.6590332 512.68836914 -149.31806641 512.37673828 -149.99707031 512.05566406 C-167.12580181 503.80978975 -183.85854864 491.95919965 -196.84277344 478.02197266 C-197.44895508 477.37147949 -198.05513672 476.72098633 -198.6796875 476.05078125 C-199.22093262 475.44532471 -199.76217773 474.83986816 -200.31982422 474.21606445 C-201.93262558 472.75151707 -201.93262558 472.75151707 -204.01367188 473.29223633 C-204.66916016 473.52579834 -205.32464844 473.75936035 -206 474 C-215.04804218 474.79768634 -222.52838513 474.52365814 -230 469 C-235.53219886 463.99168361 -239.52418304 458.58568596 -240.3125 450.98828125 C-240.64061301 442.15999065 -238.98838008 435.74363838 -233.6875 428.6875 C-230.57670976 425.57670976 -227.95541319 423.9044582 -224 422 C-223.01 422 -222.02 422 -221 422 C-220.97421875 421.20980469 -220.9484375 420.41960937 -220.921875 419.60546875 C-219.27913312 386.93730645 -206.21590163 358.80147915 -184.5 334.75 C-184.04939209 334.25081055 -183.59878418 333.75162109 -183.13452148 333.23730469 C-180.06464499 329.92748256 -176.75752679 327.2454148 -173.1875 324.5 C-169.82917124 321.59022798 -169.82917124 321.59022798 -168.71875 317.48046875 C-169.26199002 314.24366362 -170.13598496 311.16692127 -171 308 C-171.60265989 304.67831369 -172.08407045 301.34157009 -172.5625 298 C-172.69205078 297.12214844 -172.82160156 296.24429687 -172.95507812 295.33984375 C-175.42973561 278.43602956 -176.23295898 261.21268108 -173.87475586 244.25024414 C-172.48520217 236.5683868 -172.48520217 236.5683868 -174.5078125 229.3828125 C-176.569723 227.58004011 -176.569723 227.58004011 -178.88671875 226.26953125 C-182.64545341 224.01151135 -184.30992615 220.25206533 -185.578125 216.11328125 C-187.19300351 208.0239361 -186.34367299 200.080782 -182 193 C-180.59974416 191.66804932 -179.160443 190.3760987 -177.6875 189.125 C-174.62996248 186.32941588 -174.62996248 186.32941588 -173.84985352 182.3918457 C-173.98319092 181.43366943 -174.11652832 180.47549316 -174.25390625 179.48828125 C-176.43101577 160.85640562 -175.86886509 141.05047901 -170.921875 122.8671875 C-168.9754386 116.71803212 -168.9754386 116.71803212 -170.04296875 110.65234375 C-171.59026056 108.60464274 -171.59026056 108.60464274 -173.359375 106.78515625 C-176.96733258 102.85935479 -178.14919423 97.91420469 -178.4375 92.6875 C-178.10946472 85.07708151 -175.56163567 78.22324947 -170.4375 72.5625 C-164.99815978 67.62961604 -158.22162692 64.92836787 -150.875 64.5625 C-142.57302491 65.49981977 -136.14062276 68.26318236 -130 74 C-127.78096996 76.86138084 -126.26063497 79.1185875 -125.23583984 82.58422852 C-124.21849329 85.20740155 -124.21849329 85.20740155 -121.61181641 86.02319336 C-120.61843262 86.21018799 -119.62504883 86.39718262 -118.6015625 86.58984375 C-117.49240479 86.81333496 -116.38324707 87.03682617 -115.24047852 87.26708984 C-113.45081665 87.59894287 -113.45081665 87.59894287 -111.625 87.9375 C-109.14602004 88.44378782 -106.66815274 88.95555295 -104.19140625 89.47265625 C-102.35280029 89.85381592 -102.35280029 89.85381592 -100.47705078 90.24267578 C-57.73126668 99.55298489 -19.69120708 122.51292943 11.50463867 152.66235352 C13.16965077 154.21515626 13.16965077 154.21515626 16 156 C26.64303641 133.16397041 32.1775566 110.50637837 23.93359375 85.8046875 C18.30738608 71.58133742 9.76423435 59.76423435 -1 49 C-2.56427408 49.20856988 -4.1275672 49.42827859 -5.68359375 49.69140625 C-16.55118218 51.13919628 -24.16495152 49.815224 -33.25 43.875 C-39.08475371 37.77503021 -42.44326245 29.82108493 -42.26953125 21.33984375 C-41.35505086 13.40109374 -38.18727759 7.00060961 -32.265625 1.66015625 C-22.08038842 -5.80316366 -10.92819348 -5.93244789 0 0 Z M32 62 C33.29627053 66.16658386 34.90745513 69.92328566 36.875 73.8125 C47.9808606 98.0112992 46.12474598 124.82252226 37.125 149.375 C34.85191605 155.33460217 32.11119636 160.97088574 29.00390625 166.546875 C27.86296707 168.86104098 27.86296707 168.86104098 28.05859375 170.9609375 C29.43400506 173.94004415 31.44124097 176.34942042 33.5 178.875 C37.783241 184.25006279 41.57274189 189.8016551 45.13085938 195.68115234 C46.03808062 197.15224262 47.01300676 198.58119722 48 200 C48.66 200 49.32 200 50 200 C53.43377449 193.61092779 55.63545745 187.23799231 57.1875 180.1875 C57.34186523 179.49027832 57.49623047 178.79305664 57.65527344 178.07470703 C58.14627593 175.72247492 58.58255038 173.36643699 59 171 C59.18095215 169.9785791 59.3619043 168.9571582 59.54833984 167.90478516 C60.93428431 159.28482652 61.31142119 150.89161651 61.26074219 142.18652344 C61.25000821 140.00167107 61.26071795 137.81764045 61.2734375 135.6328125 C61.28702144 123.71441471 60.60911306 111.82489791 56.375 100.5625 C56.11557617 99.85641602 55.85615234 99.15033203 55.58886719 98.42285156 C50.80899306 85.85812956 43.51837502 69.67891668 32 62 Z M-127.72265625 104.609375 C-128.16480469 105.31578125 -128.60695313 106.0221875 -129.0625 106.75 C-133.0757226 112.6450705 -137.23040188 115.59048202 -144 118 C-146.67701524 118.48843787 -149.28356315 118.76171607 -152 119 C-157.3286129 132.70214745 -158.27338684 146.6155729 -158.3125 161.1875 C-158.31789795 162.44079102 -158.3232959 163.69408203 -158.32885742 164.98535156 C-158.39844969 173.73074732 -158.39844969 173.73074732 -156 182 C-153.94167426 183.19236967 -153.94167426 183.19236967 -151.4375 183.4375 C-144.32813311 185.14539422 -139.38035257 189.12470903 -135.55078125 195.359375 C-131.74566777 203.74397593 -131.92269891 211.61501839 -135 220.1875 C-135.6490563 221.79887241 -136.30937075 223.40600302 -137 225 C-121.83830992 241.31223992 -102.13115408 255.62316125 -79.578125 259.40625 C-75.7209621 258.79845463 -73.27997104 256.50290034 -70.375 254.0625 C-69.7574585 253.55887939 -69.13991699 253.05525879 -68.50366211 252.53637695 C-67.24792559 251.51060742 -65.99616817 250.47994648 -64.74853516 249.44433594 C-63.23745658 248.19614536 -61.70460322 246.9744031 -60.16796875 245.7578125 C-43.95552203 232.87535858 -28.23831744 217.93617361 -15 202 C-14.27039063 201.15953125 -13.54078125 200.3190625 -12.7890625 199.453125 C-5.58840819 191.0485758 0.73078775 182.10999978 7 173 C5.6446674 170.46326712 5.6446674 170.46326712 4 168 C3.34 168 2.68 168 2 168 C1.77957031 167.44570313 1.55914063 166.89140625 1.33203125 166.3203125 C-15.93122602 136.24883209 -68.67915246 115.75696995 -99.4921875 107.40625 C-114.22644649 102.47547367 -114.22644649 102.47547367 -127.72265625 104.609375 Z M18 186 C17.31035156 186.88300781 16.62070312 187.76601563 15.91015625 188.67578125 C6.89175632 200.20440749 -2.24432426 211.47295319 -12.265625 222.14794922 C-14.19469643 224.20790641 -16.11317337 226.27745943 -18.03125 228.34765625 C-19.39559711 229.81532379 -20.76017734 231.28277467 -22.125 232.75 C-23.10267334 233.80610474 -23.10267334 233.80610474 -24.10009766 234.88354492 C-24.70901855 235.53556885 -25.31793945 236.18759277 -25.9453125 236.859375 C-26.48687988 237.44170898 -27.02844727 238.02404297 -27.58642578 238.62402344 C-29 240 -29 240 -31 241 C-31 241.66 -31 242.32 -31 243 C-31.81017578 243.33064453 -31.81017578 243.33064453 -32.63671875 243.66796875 C-35.78257949 245.44109026 -38.21911982 247.83610827 -40.8125 250.3125 C-45.01147752 254.25625561 -49.23260001 257.74950001 -54 261 C-54 261.33 -54 261.66 -54 262 C-26.92939277 262.96045518 0.68598159 254.43107909 21 236 C21.83660156 235.29230469 22.67320312 234.58460938 23.53515625 233.85546875 C29.44824332 228.76290055 34.33206574 223.24564389 39 217 C35.66225332 210.47375547 31.9743531 204.23753998 27.9375 198.125 C27.5264502 197.4952124 27.11540039 196.8654248 26.69189453 196.21655273 C24.11580653 192.3667722 21.38036363 189.1694675 18 186 Z M46 234 C45.61368408 234.40726318 45.22736816 234.81452637 44.8293457 235.23413086 C36.47670651 243.97646945 28.35568564 251.65417575 18 258 C16.87980469 258.69609375 15.75960937 259.3921875 14.60546875 260.109375 C-5.75372945 272.43748994 -28.61545993 278.21972501 -52.3125 278.125 C-53.26833984 278.12886719 -54.22417969 278.13273437 -55.20898438 278.13671875 C-63.17129417 278.12600952 -63.17129417 278.12600952 -67.01049805 277.54223633 C-75.67731018 276.24428087 -80.13081571 278.50610603 -87.1875 283.4375 C-89.28767437 284.82955691 -91.3879377 286.22147962 -93.48828125 287.61328125 C-94.55900879 288.33854004 -95.62973633 289.06379883 -96.73291016 289.81103516 C-100.99909535 292.66939836 -105.34423839 295.39230288 -109.69335938 298.12207031 C-123.29649919 306.68561843 -136.74063246 315.57095794 -149 326 C-141.28017716 351.70136141 -129.02855736 375.23410857 -112 396 C-111.56187988 396.53963379 -111.12375977 397.07926758 -110.67236328 397.63525391 C-101.17815544 409.29702666 -90.92979169 419.77867808 -79 429 C-78.46987305 429.41717285 -77.93974609 429.8343457 -77.39355469 430.26416016 C-61.37780658 442.80812537 -44.06011626 452.13860522 -25.01391602 459.19750977 C-23 460 -23 460 -19.71875 461.6875 C-15.73829794 463.60909755 -12.32584383 463.71831355 -8 463 C-3.84786405 460.61473041 -2.49571119 458.43809387 -1 454 C-0.65216243 452.1643023 -0.30732352 450.32752412 -0.01342773 448.48242188 C1.27034188 440.4278494 3.24949786 433.30121966 7 426 C7.31791504 425.35998047 7.63583008 424.71996094 7.96337891 424.06054688 C13.18496971 413.79600498 18.23033986 408.13498081 28.875 403.578125 C32.07252266 402.29102014 32.07252266 402.29102014 33.4375 399.796875 C33.623125 399.20390625 33.80875 398.6109375 34 398 C30.3620824 394.65704869 26.84406884 392.31937782 22.4375 390.0625 C17.71026929 387.53143506 14.70921428 385.6710591 12 381 C11.36561171 377.97223772 11.53267964 376.16739352 12 373 C18.75008999 366.32803605 32.87082168 367.67675714 41.81469727 367.34130859 C45.72549981 367.56575578 45.72549981 367.56575578 49 366 C49.47826293 362.55650687 49.24387732 361.32516976 47.125 358.5 C46.42375 357.675 45.7225 356.85 45 356 C42.22917393 350.19492425 41.87988553 343.917047 43.65234375 337.71875 C47.73143934 328.61518903 56.5069129 324.32653215 64.9375 319.875 C65.88818359 319.36324219 66.83886719 318.85148437 67.81835938 318.32421875 C73.16754299 315.45608308 78.55727042 312.68602239 84 310 C83.72036191 303.22554168 80.86885968 299.31124994 76.9375 293.9375 C75.74357764 292.2474826 74.55348249 290.55475509 73.3671875 288.859375 C72.78807617 288.03244141 72.20896484 287.20550781 71.61230469 286.35351562 C63.97477174 275.20484549 58.64824968 263.08518154 53.921875 250.484375 C53.38240234 249.04880249 53.38240234 249.04880249 52.83203125 247.58422852 C52.11834618 245.67360726 51.4124317 243.76006293 50.71484375 241.84350586 C50.39128906 240.97089111 50.06773437 240.09827637 49.734375 239.19921875 C49.30463379 238.02105591 49.30463379 238.02105591 48.86621094 236.8190918 C48.14012527 234.81369636 48.14012527 234.81369636 46 234 Z M-156 235 C-157.63412083 244.72147552 -158.35316517 254.07400754 -158.3125 263.9375 C-158.31200653 264.60110535 -158.31151306 265.26471069 -158.31100464 265.94842529 C-158.27902413 280.11515714 -156.96373998 294.13084787 -154 308 C-150.0884392 306.21830387 -146.60888871 303.81171645 -143.05859375 301.4140625 C-141.66400945 300.47863615 -140.26939569 299.54325371 -138.87475586 298.60791016 C-138.1490036 298.11993958 -137.42325134 297.63196899 -136.67550659 297.12921143 C-123.90783354 288.54778912 -111.08769688 280.08809429 -98 272 C-101.10338281 268.61864912 -104.80336589 267.13431417 -108.9375 265.3125 C-124.43168028 258.23379911 -137.3137783 248.0865105 -149.1015625 235.87109375 C-151.76183976 233.24913324 -152.52149977 234.10232252 -156 235 Z M-167.9375 341.625 C-188.95406544 363.24878563 -203.4515718 391.43759196 -204 422 C-203.23816406 422.41958984 -203.23816406 422.41958984 -202.4609375 422.84765625 C-194.9206601 427.23909122 -189.90672114 432.14424738 -187.46484375 440.68359375 C-186.53084232 445.33790339 -186.20663326 449.86319892 -187.87890625 454.3671875 C-188.88521399 457.19206932 -189.32179646 459.0024439 -189 462 C-185.72123976 466.80269105 -181.4761851 470.33592599 -177 474 C-176.3493457 474.54092285 -175.69869141 475.0818457 -175.02832031 475.63916016 C-154.34754422 492.64657462 -123.05226863 512.43857788 -95 511 C-95 506.53208535 -97.37019062 503.13280973 -99.42382812 499.26953125 C-103.44245761 491.53056229 -104.35009466 483.6921529 -101.75 475.3125 C-97.95643209 465.25432453 -90.63276287 458.41034509 -80.9375 454 C-79.29856559 453.31654861 -77.65504533 452.64345688 -76 452 C-79.31026124 448.55156089 -82.67854712 445.65453635 -86.5625 442.875 C-93.12574351 438.0106669 -99.10498299 432.64524349 -105 427 C-105.55445801 426.47809082 -106.10891602 425.95618164 -106.68017578 425.41845703 C-116.24483703 416.38831537 -124.33517459 406.67819385 -132 396 C-132.43763672 395.40171387 -132.87527344 394.80342773 -133.32617188 394.18701172 C-145.69595724 377.17132023 -155.04532158 357.80186619 -162 338 C-164.98512765 338 -165.8443919 339.54324692 -167.9375 341.625 Z " fill="#FFFFFF" transform="translate(567,288)"/>
<path d="M0 0 C1.42493019 0.00067978 1.42493019 0.00067978 2.87864685 0.00137329 C4.37168335 -0.00366463 4.37168335 -0.00366463 5.8948822 -0.00880432 C9.2118299 -0.01836072 12.52872722 -0.02026091 15.84568787 -0.02133179 C18.15526348 -0.02454521 20.46483888 -0.02790934 22.77441406 -0.03141785 C27.63614878 -0.03742364 32.49786571 -0.03925667 37.35960388 -0.03866577 C43.54466456 -0.03856499 49.72960823 -0.0521223 55.91464138 -0.06943798 C60.69780991 -0.08065262 65.48095122 -0.08258197 70.26413155 -0.08205605 C72.54074055 -0.08322561 74.81735051 -0.0875889 77.09394646 -0.09538841 C93.59527979 -0.14654987 110.28944286 -0.11655881 126.28709412 4.45913696 C127.07608093 4.67787476 127.86506775 4.89661255 128.67796326 5.12197876 C148.40012187 10.749099 168.03566229 22.49571163 178.38572693 40.87564087 C189.42209637 61.92238561 192.13051683 87.21226223 185.41209412 110.14663696 C177.9666444 132.45571342 162.12337387 147.75022685 141.41209412 158.14663696 C141.8746083 163.05853755 144.36248921 166.1824544 147.28709412 169.95913696 C148.3008673 171.30394487 149.31252489 172.65034976 150.32225037 173.99819946 C150.83932556 174.6868811 151.35640076 175.37556274 151.8891449 176.08511353 C154.24910246 179.27964409 156.49050286 182.5508754 158.72459412 185.83413696 C162.32159022 191.10725774 165.94731773 196.35801158 169.61375427 201.5831604 C170.80701091 203.28410999 171.99811426 204.9865723 173.18699646 206.69058228 C176.02043684 210.75092985 178.8728552 214.79331556 181.78318787 218.79898071 C182.30203552 219.52407837 182.82088318 220.24917603 183.35545349 220.99624634 C184.32516727 222.35131043 185.30634977 223.69826737 186.30076599 225.03530884 C189.49812689 229.54440754 189.49812689 229.54440754 189.02561951 232.85195923 C188.82315613 233.60920288 188.62069275 234.36644653 188.41209412 235.14663696 C182.49034487 235.52026704 176.57556495 235.79077396 170.64476013 235.97061157 C168.63312765 236.04560629 166.62230111 236.14765981 164.61351013 236.27822876 C148.42788713 237.30314405 148.42788713 237.30314405 143.45869446 233.74981689 C140.03682597 230.25244299 137.62668331 226.24351013 135.36079407 221.93127441 C134.21752555 219.78062625 132.86634971 217.84477148 131.42381287 215.88491821 C130.64683997 214.74450951 129.87205074 213.60260959 129.09959412 212.45913696 C128.18629853 211.12007191 127.27219471 209.78155785 126.35740662 208.44351196 C125.88464294 207.75192993 125.41187927 207.0603479 124.92478943 206.34780884 C122.13244191 202.28457364 119.3032629 198.24713299 116.47459412 194.20913696 C115.95018738 193.45994995 115.42578064 192.71076294 114.88548279 191.93887329 C113.75601016 190.32735212 112.59693958 188.73633519 111.41551208 187.1625061 C109.76791137 184.68227072 108.61288563 182.45820207 107.3969574 179.7694397 C104.85382784 174.67147535 102.28073113 170.29645346 97.41209412 167.14663696 C88.06913388 164.50859353 77.90922179 165.46130189 68.31083679 165.9793396 C64.71218071 166.15485139 61.11147284 166.23121313 57.50975037 166.31655884 C50.47219824 166.49763594 43.44296317 166.78677989 36.41209412 167.14663696 C36.40178665 167.98379745 36.39147919 168.82095795 36.38085938 169.68348694 C36.2830563 177.55638433 36.18056687 185.42920354 36.07275486 193.30197048 C36.01748883 197.34985514 35.9640631 201.39774696 35.91477966 205.44570923 C35.86719018 209.34906058 35.81484962 213.25232145 35.75915337 217.15556526 C35.73870517 218.64794741 35.71999624 220.14035439 35.7030201 221.63278008 C35.67903031 223.71618545 35.64896893 225.79941837 35.61741638 227.88272095 C35.6018721 229.07074814 35.58632782 230.25877533 35.5703125 231.48280334 C35.41209412 234.14663696 35.41209412 234.14663696 34.41209412 235.14663696 C31.39401349 235.24777396 28.39928899 235.28632605 25.38084412 235.27944946 C24.4745929 235.28040619 23.56834167 235.28136292 22.6346283 235.28234863 C20.71458365 235.2830305 18.79453671 235.28117578 16.87449646 235.27700806 C13.92473708 235.27165989 10.97512998 235.27695284 8.02537537 235.28335571 C6.16469794 235.28269493 4.30402062 235.28141377 2.44334412 235.27944946 C1.1105542 235.28248581 1.1105542 235.28248581 -0.24916077 235.2855835 C-6.472956 235.26158685 -6.472956 235.26158685 -7.58790588 234.14663696 C-7.68812978 231.15276844 -7.72228666 228.18189052 -7.71488953 225.18753052 C-7.71644952 224.23591396 -7.71800951 223.2842974 -7.71961677 222.30384398 C-7.72363117 219.08931688 -7.72043543 215.87483635 -7.71730042 212.66030884 C-7.71865426 210.36624626 -7.7204341 208.0721839 -7.72261047 205.77812195 C-7.72718679 199.52830795 -7.72539443 193.27851037 -7.72223139 187.02869606 C-7.71970881 180.50416645 -7.72204504 173.9796383 -7.72361755 167.45510864 C-7.72555643 155.79298371 -7.72243857 144.1308663 -7.71735822 132.46874255 C-7.71289017 121.88431952 -7.7136661 111.29990745 -7.71827698 100.71548462 C-7.72362261 88.43856541 -7.72562365 76.16165402 -7.72266471 63.88473368 C-7.72110147 57.38063703 -7.72090946 50.87654795 -7.7242012 44.37245178 C-7.72707868 38.25928936 -7.7251065 32.14614775 -7.71930695 26.03298759 C-7.71797868 23.78227714 -7.71837457 21.53156495 -7.72056961 19.28085518 C-7.72327853 16.22246051 -7.71990316 13.16413369 -7.71488953 10.10574341 C-7.71712025 9.20274742 -7.71935097 8.29975142 -7.72164929 7.36939192 C-7.69784577 -0.05172344 -7.39251506 0.03671076 0 0 Z M35.41209412 39.14663696 C35.20817439 41.96189889 35.1289289 44.67919462 35.13743591 47.4960022 C35.13232498 48.35954315 35.12721405 49.22308411 35.12194824 50.11279297 C35.10800953 52.97700872 35.10901223 55.840985 35.11131287 58.70523071 C35.10742824 60.69058828 35.10309406 62.67594501 35.09832764 64.66130066 C35.09085618 68.82676892 35.09116336 72.99215243 35.09642029 77.15762329 C35.10221562 82.50234679 35.0852868 87.84672384 35.06207561 93.19139004 C35.04736168 97.29284197 35.04646339 101.39421002 35.04958534 105.49568367 C35.04907093 107.46650949 35.04381089 109.43733986 35.03377342 111.40814018 C35.02147181 114.16161647 35.02816282 116.91441225 35.03977966 119.6678772 C35.03213593 120.48616501 35.02449219 121.30445282 35.01661682 122.14753723 C34.94278449 126.30031883 34.94278449 126.30031883 36.79390907 129.85612869 C39.03050988 131.63982571 40.52395528 131.52096761 43.36399841 131.51895142 C44.37322861 131.52518021 45.3824588 131.531409 46.42227173 131.53782654 C47.5159053 131.52861679 48.60953888 131.51940704 49.73631287 131.50991821 C51.43761101 131.51066597 51.43761101 131.51066597 53.17327881 131.51142883 C55.58338667 131.5090846 57.9934968 131.4993357 60.40354919 131.4828186 C64.04009242 131.45951821 67.67588731 131.46221903 71.31248474 131.46890259 C104.54369209 131.48279493 104.54369209 131.48279493 133.16209412 116.02163696 C142.64818812 105.88519609 144.88488362 93.26293109 144.65818787 79.92788696 C143.88329966 68.02166811 139.90393067 58.14083653 131.22459412 49.83413696 C116.96927896 37.99052504 98.73147404 36.99523009 81.03709412 36.97866821 C79.79081238 36.97533981 78.54453064 36.97201141 77.26048279 36.96858215 C74.64517076 36.96354687 72.02985239 36.96117277 69.41453552 36.96133423 C66.06089365 36.9614368 62.70745898 36.94766372 59.35386658 36.93056202 C56.1441167 36.91681414 52.93436947 36.91735565 49.72459412 36.91616821 C47.91692566 36.90538994 47.91692566 36.90538994 46.07273865 36.89439392 C44.96398376 36.89747055 43.85522888 36.90054718 42.71287537 36.90371704 C41.73487976 36.90229202 40.75688416 36.900867 39.74925232 36.8993988 C37.22027892 36.91925456 37.22027892 36.91925456 35.41209412 39.14663696 Z " fill="#FFFFFF" transform="translate(1873.587905883789,543.8533630371094)"/>
<path d="M0 0 C0.67831627 -0.00538554 1.35663254 -0.01077108 2.05550385 -0.01631981 C4.33340989 -0.03065253 6.61073917 -0.02348297 8.88867188 -0.01637268 C10.51969878 -0.02207346 12.15072169 -0.02903658 13.78173828 -0.03717041 C18.21556225 -0.05514829 22.64918882 -0.05392492 27.08303833 -0.04822803 C30.78108911 -0.04514319 34.47910158 -0.05122066 38.17714691 -0.05726677 C46.89872915 -0.07132527 55.62021347 -0.0697394 64.34179688 -0.05836487 C73.34814236 -0.04687874 82.35419025 -0.06096457 91.36049652 -0.08776134 C99.08625135 -0.10988985 106.81191256 -0.11656228 114.53769684 -0.11068493 C119.15500513 -0.10730773 123.77212257 -0.10978095 128.3894043 -0.12693596 C132.72986936 -0.14235804 137.06989207 -0.1385027 141.41033936 -0.11963081 C143.00551262 -0.11593189 144.60071833 -0.11909116 146.19586182 -0.1295166 C148.36937186 -0.14264026 150.54139869 -0.13125857 152.71484375 -0.11352539 C154.54106262 -0.11321146 154.54106262 -0.11321146 156.4041748 -0.1128912 C159.35742188 0.38768005 159.35742188 0.38768005 161.24832153 2.2282095 C162.78719606 5.22447062 162.74613195 7.62222638 162.75585938 10.98143005 C162.75972656 12.25889099 162.76359375 13.53635193 162.76757812 14.8525238 C162.76129395 15.5149408 162.75500977 16.17735779 162.74853516 16.85984802 C162.73247074 18.88153094 162.74839953 20.90121518 162.76757812 22.9228363 C162.76371094 24.20029724 162.75984375 25.47775818 162.75585938 26.79393005 C162.75247559 27.96246521 162.7490918 29.13100037 162.74560547 30.33494568 C162.31025433 33.75861274 161.73566403 34.94099334 159.35742188 37.38768005 C157.07013512 37.89269543 157.07013512 37.89269543 154.33383179 37.89993286 C153.29621201 37.91240051 152.25859222 37.92486816 151.18952942 37.93771362 C150.05174545 37.93111221 148.91396149 37.9245108 147.74169922 37.91770935 C146.54317825 37.92644073 145.34465729 37.93517212 144.1098175 37.94416809 C140.82267752 37.96440226 137.53607427 37.96704475 134.24889326 37.96225333 C130.81263079 37.96166066 127.37652812 37.98433897 123.94033813 38.00482178 C117.43216582 38.04025121 110.92410524 38.05625343 104.41584742 38.06459695 C94.85312627 38.07755819 85.29049804 38.11577721 75.72786903 38.15869617 C74.67776683 38.16340421 74.67776683 38.16340421 73.60645044 38.16820735 C72.21115095 38.17448675 70.81585175 38.1808303 69.42055285 38.18723994 C65.32384337 38.20534782 61.22718915 38.21642269 57.13044333 38.22153699 C53.99173861 38.22625417 50.85305003 38.23670882 47.71435547 38.24583435 C46.00160683 38.24504128 46.00160683 38.24504128 44.2542572 38.24423218 C43.22227707 38.24824036 42.19029694 38.25224854 41.12704468 38.25637817 C40.22481863 38.25763545 39.32259258 38.25889273 38.39302635 38.2601881 C36.36254889 38.16204511 36.36254889 38.16204511 35.35742188 39.38768005 C35.26371563 41.16759929 35.23997917 42.95124745 35.24389648 44.73362732 C35.24397202 45.87473465 35.24404755 47.01584198 35.24412537 48.19152832 C35.24928665 49.43317245 35.25444794 50.67481659 35.25976562 51.9540863 C35.26188805 53.84972572 35.26188805 53.84972572 35.26405334 55.78366089 C35.26871605 59.14892894 35.27770707 62.51412995 35.28875732 65.87937927 C35.29897342 69.31117675 35.30355139 72.74298114 35.30859375 76.17478943 C35.31964807 82.9124383 35.33640477 89.6500553 35.35742188 96.38768005 C37.69618712 97.55706268 39.07828149 97.51975436 41.68457031 97.53244019 C43.04745178 97.54278793 43.04745178 97.54278793 44.43786621 97.55334473 C45.43741333 97.5559581 46.43696045 97.55857147 47.46679688 97.56126404 C49.04249451 97.57129456 49.04249451 97.57129456 50.65002441 97.58152771 C52.93630807 97.59560083 55.22260598 97.60748763 57.50891113 97.61747551 C61.12220441 97.63384076 64.73539173 97.65707535 68.34863281 97.68237305 C78.62364458 97.75328259 88.89869917 97.81337465 99.17382812 97.86448669 C105.45258814 97.89620155 111.73122612 97.93745579 118.0098877 97.98468208 C120.4085471 98.00074526 122.80723464 98.01304673 125.20593262 98.02158928 C128.55343081 98.03368449 131.90063968 98.0578088 135.24804688 98.08470154 C136.24759399 98.08529068 137.24714111 98.08587982 138.27697754 98.08648682 C139.18556519 98.09620514 140.09415283 98.10592346 141.03027344 98.11593628 C142.21825531 98.12228419 142.21825531 98.12228419 143.43023682 98.12876034 C145.35742188 98.38768005 145.35742188 98.38768005 147.35742188 100.38768005 C147.75690659 104.78769342 147.68643749 109.20226168 147.6730957 113.61839294 C147.6699387 115.81347926 147.69337948 118.00721391 147.71875 120.20213318 C147.72102331 121.59601169 147.72172634 122.98989382 147.72070312 124.3837738 C147.72368408 125.65406433 147.72666504 126.92435486 147.72973633 128.23313904 C147.35742188 131.38768005 147.35742188 131.38768005 146.11253548 133.06033897 C143.89140317 134.74011637 142.67130532 134.76811481 139.90328979 134.77967834 C138.99188232 134.79077133 138.08047485 134.80186432 137.14144897 134.81329346 C136.14392609 134.81028732 135.1464032 134.80728119 134.11865234 134.80418396 C133.06643494 134.81276932 132.01421753 134.82135468 130.93011475 134.8302002 C127.44487896 134.85533739 123.95992765 134.85964559 120.47460938 134.86424255 C118.05989708 134.87854394 115.64519299 134.89429937 113.23049927 134.91145325 C106.86868926 134.95337717 100.50693011 134.9783291 94.14501953 134.99894714 C83.95364101 135.03471808 73.76238785 135.09557393 63.57114029 135.15743637 C60.00078618 135.17660204 56.43046559 135.18827828 52.8600769 135.1988678 C50.6858513 135.20907427 48.51162639 135.2194317 46.33740234 135.22996521 C44.83504532 135.2315287 44.83504532 135.2315287 43.30233765 135.23312378 C42.39656982 135.23857712 41.490802 135.24403046 40.55758667 135.24964905 C39.76597578 135.25220514 38.97436489 135.25476124 38.15876579 135.25739479 C36.33517866 135.19183825 36.33517866 135.19183825 35.35742188 136.38768005 C35.25831627 138.25403793 35.22942926 140.124162 35.22802734 141.9931488 C35.2232991 143.79006165 35.2232991 143.79006165 35.21847534 145.62327576 C35.22049957 146.92740417 35.2225238 148.23153259 35.22460938 149.57518005 C35.22393627 150.91657021 35.2229662 152.25796024 35.22171021 153.59934998 C35.22023352 156.41389627 35.22238684 159.22841087 35.22705078 162.04295349 C35.23274807 165.65808636 35.22946891 169.273145 35.22347832 172.88827515 C35.21987191 175.65912947 35.22101166 178.42996608 35.22360611 181.20082092 C35.22460154 183.18457589 35.22155447 185.16833153 35.21847534 187.15208435 C35.2216275 188.35002625 35.22477966 189.54796814 35.22802734 190.7822113 C35.22882294 191.84286804 35.22961853 192.90352478 35.23043823 193.99632263 C35.08769908 196.34082948 35.08769908 196.34082948 36.35742188 197.38768005 C37.9953326 197.49157097 39.63771193 197.52564993 41.27890015 197.53244019 C42.87735527 197.54278793 42.87735527 197.54278793 44.50810242 197.55334473 C45.6873378 197.5559581 46.86657318 197.55857147 48.08154297 197.56126404 C49.93258888 197.57129456 49.93258888 197.57129456 51.82102966 197.58152771 C54.51114623 197.59561744 57.20120784 197.60793732 59.89133835 197.61747551 C64.14330913 197.63289365 68.39520471 197.6568426 72.64712524 197.68237305 C84.7399623 197.75366693 96.83284266 197.81337281 108.92578125 197.86448669 C115.6001189 197.8927731 122.27438195 197.92814598 128.94864142 197.97114044 C133.17692626 197.99794693 137.40512666 198.01583121 141.63347983 198.02717769 C144.88054049 198.03843237 148.12750982 198.06255872 151.37451172 198.08470154 C152.54969864 198.08529068 153.72488556 198.08587982 154.9356842 198.08648682 C156.5425988 198.1010643 156.5425988 198.1010643 158.18197632 198.11593628 C159.58069253 198.12228419 159.58069253 198.12228419 161.00766563 198.12876034 C163.35742188 198.38768005 163.35742188 198.38768005 166.35742188 200.38768005 C166.64959056 202.91814829 166.75375328 205.20060885 166.72070312 207.73143005 C166.72145088 208.81877441 166.72145088 208.81877441 166.72221375 209.92808533 C166.71987229 211.46135701 166.71013943 212.99463247 166.69360352 214.52781677 C166.67001311 216.8785885 166.67304109 219.22822635 166.6796875 221.5790863 C166.67411073 223.06737434 166.66700085 224.55565758 166.65820312 226.04393005 C166.65911453 226.74916809 166.66002594 227.45440613 166.66096497 228.18101501 C166.58845409 233.15664784 166.58845409 233.15664784 164.35742188 235.38768005 C161.44913578 235.64215565 161.44913578 235.64215565 157.64527893 235.64837646 C156.94739932 235.65220201 156.24951972 235.65602756 155.53049225 235.65996903 C153.18049026 235.67032843 150.83073126 235.6663014 148.48071289 235.66233826 C146.80057549 235.66668312 145.12044007 235.67186551 143.44030762 235.67782593 C138.86803418 235.69125164 134.29584321 235.69179063 129.7235539 235.68926263 C125.91123597 235.68819531 122.09893489 235.69307014 118.28662056 235.69786805 C109.29515292 235.70897563 100.30372705 235.70939365 91.31225586 235.70335388 C82.02594206 235.69731212 72.7397797 235.70962736 63.45349175 235.73092395 C55.48997865 235.74851772 47.52651385 235.75454483 39.56298202 235.75128621 C34.80260761 235.74946962 30.04234121 235.7521468 25.28198433 235.76600075 C20.80617771 235.77853836 16.3306078 235.77667378 11.85480499 235.76358986 C10.20964161 235.7612156 8.56446178 235.76398899 6.91931725 235.77221298 C4.67811625 235.78261097 2.43771978 235.7746368 0.19654846 235.76190186 C-1.68692622 235.76215347 -1.68692622 235.76215347 -3.60845089 235.76241016 C-6.64257812 235.38768005 -6.64257812 235.38768005 -8.30861586 234.11033076 C-10.68838742 231.037144 -10.05192777 227.0887542 -10.02352905 223.3533783 C-10.02820902 222.41779823 -10.032889 221.48221816 -10.03771079 220.51828718 C-10.049718 217.3697914 -10.04018115 214.22172628 -10.03076172 211.07322693 C-10.03482487 208.82152044 -10.0401653 206.56981593 -10.04669189 204.31811523 C-10.06040174 198.1922043 -10.05505169 192.06644445 -10.04555464 185.94053078 C-10.03797703 179.53973091 -10.04499835 173.13894427 -10.04971313 166.73814392 C-10.0555265 155.29840368 -10.0461839 143.85874737 -10.03093512 132.41902131 C-10.01753145 122.04216636 -10.0198594 111.66541209 -10.03369141 101.28855896 C-10.04973816 89.24451256 -10.05572618 77.20054225 -10.04685462 65.15648127 C-10.04216941 58.77864317 -10.04157648 52.40087446 -10.05146408 46.02304077 C-10.0601085 40.02797454 -10.05415805 34.03309906 -10.03678131 28.03805351 C-10.03280295 25.83333593 -10.03397342 23.62860238 -10.04056931 21.42389107 C-10.0487216 18.4230354 -10.03853978 15.4227977 -10.02352905 12.42198181 C-10.03022122 11.54173954 -10.03691338 10.66149726 -10.04380834 9.75458097 C-9.98599726 3.82940049 -9.98599726 3.82940049 -8.30356085 1.66537851 C-5.67028747 -0.36024721 -3.27379574 0.00653398 0 0 Z " fill="#FFFFFF" transform="translate(1650.642578125,543.6123199462891)"/>
<path d="M0 0 C0.85318314 -0.00701431 1.70636627 -0.01402863 2.58540344 -0.02125549 C3.51881561 -0.01361176 4.45222778 -0.00596802 5.41392517 0.00190735 C6.39982132 -0.00174332 7.38571747 -0.00539398 8.40148926 -0.00915527 C11.6752576 -0.01728697 14.94853442 -0.00361418 18.22227478 0.01094055 C20.50657145 0.01145946 22.79086857 0.01094056 25.07516479 0.00942993 C29.8779309 0.00951981 34.68052973 0.01997012 39.48326111 0.03804016 C45.59206084 0.0605357 51.700612 0.06130801 57.80944157 0.05452251 C62.53772118 0.05115034 67.26594588 0.05787628 71.99421501 0.06765175 C74.24290617 0.0714629 76.4916035 0.07266921 78.74029732 0.0710659 C95.02405888 0.0691277 111.61563234 0.13860751 127.43711853 4.4992218 C128.21434265 4.70950012 128.99156677 4.91977844 129.79234314 5.13642883 C149.87021336 10.91967288 168.57359597 23.48152581 179.31993103 41.6320343 C191.3587229 63.755678 192.58248048 88.18852341 185.74571228 112.10469055 C179.02220608 132.45272747 165.04632895 146.72070042 146.31211853 156.4992218 C140.61716532 159.33924251 134.87176214 161.51841647 128.74961853 163.2492218 C127.74414978 163.53563538 127.74414978 163.53563538 126.71836853 163.82783508 C114.4125828 167.03513226 101.85231291 167.67405346 89.19883728 167.75312805 C87.76774018 167.76936173 86.33665359 167.78654749 84.90557861 167.80462646 C81.19283401 167.84967109 77.48007418 167.88482718 73.76719666 167.91682434 C67.78122388 167.96934983 61.79540283 168.03384264 55.80962563 168.1050396 C53.72784497 168.12781076 51.64608421 168.14410105 49.5642395 168.15975952 C47.68506584 168.17999428 47.68506584 168.17999428 45.76792908 168.20063782 C44.66289536 168.21014969 43.55786163 168.21966156 42.41934204 168.22946167 C39.8292742 168.2002518 39.8292742 168.2002518 37.81211853 169.3742218 C37.80625229 170.17157745 37.80038605 170.96893311 37.79434204 171.79045105 C37.73650056 179.29527498 37.66447401 186.79976365 37.57640362 194.30428886 C37.531626 198.16270241 37.49238669 202.02100857 37.46568298 205.8795929 C37.439723 209.6015568 37.39937384 213.32310904 37.34893227 217.04481888 C37.33221377 218.46656815 37.32073059 219.8883887 37.31450462 221.31022263 C37.30491842 223.29765266 37.27519402 225.28495502 37.24449158 227.27217102 C37.23338852 228.40468292 37.22228546 229.53719482 37.21084595 230.70402527 C37.01347588 232.02577255 37.01347588 232.02577255 36.81211853 233.3742218 C32.96476955 235.93912112 29.77388528 235.68004639 25.31211853 235.67500305 C24.06398376 235.68143074 24.06398376 235.68143074 22.79063416 235.68798828 C21.03217987 235.69372873 19.27370184 235.69423393 17.51524353 235.68989563 C14.82212454 235.68673355 12.13010185 235.71020478 9.43711853 235.73554993 C7.72878658 235.73782271 6.02045168 235.73852651 4.31211853 235.73750305 C3.50580994 235.7467128 2.69950134 235.75592255 1.86875916 235.76541138 C-3.7255246 235.71900493 -3.7255246 235.71900493 -5.90061438 234.09702349 C-8.21380387 231.00118829 -7.59712112 227.06082794 -7.5688324 223.33992004 C-7.57351237 222.40433998 -7.57819234 221.46875991 -7.58301413 220.50482893 C-7.59502134 217.35633314 -7.5854845 214.20826803 -7.57606506 211.05976868 C-7.58012822 208.80806218 -7.58546865 206.55635768 -7.59199524 204.30465698 C-7.60570508 198.17874605 -7.60035503 192.0529862 -7.59085798 185.92707253 C-7.58328037 179.52627266 -7.5903017 173.12548602 -7.59501648 166.72468567 C-7.60082984 155.28494543 -7.59148725 143.84528911 -7.57623847 132.40556306 C-7.5628348 122.02870811 -7.56516275 111.65195384 -7.57899475 101.27510071 C-7.5950415 89.23105431 -7.60102952 77.18708399 -7.59215796 65.14302301 C-7.58747276 58.76518491 -7.58687982 52.3874162 -7.59676743 46.00958252 C-7.60541184 40.01451629 -7.5994614 34.01964081 -7.58208466 28.02459526 C-7.57810629 25.81987767 -7.57927677 23.61514413 -7.58587265 21.41043282 C-7.59402494 18.40957715 -7.58384312 15.40933945 -7.5688324 12.40852356 C-7.57552456 11.52828128 -7.58221673 10.64803901 -7.58911169 9.74112272 C-7.53110503 3.79589774 -7.53110503 3.79589774 -5.78572816 1.65157109 C-3.73669643 0.01353583 -2.60455585 -0.00058977 0 0 Z M36.81211853 39.3742218 C36.51532876 42.23395614 36.41318636 44.87742004 36.43980408 47.73945618 C36.43615341 48.60460342 36.43250275 49.46975067 36.42874146 50.3611145 C36.42061369 53.23026459 36.43426444 56.09885384 36.44883728 58.9679718 C36.44935562 60.95572408 36.44883893 62.94347687 36.44732666 64.93122864 C36.44741648 69.10094333 36.45786649 73.27046509 36.47593689 77.44013977 C36.49862438 82.7938777 36.49916924 88.1473335 36.49241924 93.50110626 C36.48908304 97.60681175 36.49570276 101.71245252 36.50554848 105.81814575 C36.5094068 107.79257875 36.51054609 109.76701894 36.50896263 111.74145508 C36.50859314 114.49743954 36.52117944 117.25305779 36.53746033 120.00898743 C36.53498291 120.83087051 36.53250549 121.6527536 36.529953 122.49954224 C36.39472168 126.90610675 36.39472168 126.90610675 38.81211853 130.3742218 C41.37525808 130.68822018 41.37525808 130.68822018 44.40074158 130.64888 C45.57344101 130.65841202 46.74614044 130.66794403 47.95437622 130.67776489 C49.23129837 130.67685349 50.50822052 130.67594208 51.82383728 130.67500305 C53.79716789 130.68143074 53.79716789 130.68143074 55.81036377 130.68798828 C58.60729475 130.69546603 61.40409967 130.69515289 64.20103455 130.68989563 C67.74207564 130.68416937 71.2825819 130.7008551 74.82353497 130.7242403 C77.57696428 130.73918079 80.33027181 130.73982107 83.08373451 130.73673058 C85.01036522 130.73747841 86.9369773 130.75122363 88.86355591 130.76541138 C105.42704337 130.68040487 122.12865105 127.46416331 134.56993103 115.71406555 C143.07614946 106.33157839 146.51784561 93.73851653 146.09727478 81.1945343 C144.94984873 69.84601909 141.53206976 58.27470774 132.81211853 50.3742218 C114.31752702 36.29486666 92.50141938 37.03833017 70.3467865 37.11347961 C66.52908373 37.12431557 62.71183931 37.11347576 58.89414978 37.1007843 C56.46576333 37.10210392 54.03737716 37.10466222 51.60899353 37.1085968 C50.46847534 37.10454834 49.32795715 37.10049988 48.15287781 37.09632874 C47.10037842 37.10263306 46.04787903 37.10893738 44.96348572 37.11543274 C43.57573944 37.11781952 43.57573944 37.11781952 42.15995789 37.12025452 C39.54216447 37.22052326 39.54216447 37.22052326 36.81211853 39.3742218 Z " fill="#FFFFFF" transform="translate(1408.1878814697266,543.6257781982422)"/>
<path d="M0 0 C1.24559692 -0.00318237 2.49119385 -0.00636475 3.77453613 -0.00964355 C4.46265884 -0.01665283 5.15078156 -0.02366211 5.85975647 -0.03088379 C8.13449452 -0.04849005 10.40798856 -0.03683314 12.68273926 -0.02331543 C14.26310464 -0.02600962 15.84346842 -0.02989144 17.42382812 -0.03491211 C20.73604107 -0.04081067 24.04782255 -0.03223317 27.35998535 -0.0135498 C31.60743297 0.00924053 35.85386969 -0.00388072 40.10128021 -0.02783966 C43.36468128 -0.04228832 46.62784235 -0.03769607 49.89125061 -0.02732849 C51.45736307 -0.02465859 53.02349727 -0.02794023 54.58958435 -0.0372467 C56.77812476 -0.0473977 58.96502434 -0.03193497 61.15344238 -0.00964355 C62.39903931 -0.00646118 63.64463623 -0.00327881 64.92797852 0 C67.96398926 0.50793457 67.96398926 0.50793457 69.6303193 2.24004263 C71.16517622 4.85005091 71.33891741 6.29543096 71.33871937 9.30214024 C71.34592591 10.26967151 71.35313245 11.23720279 71.36055738 12.23405319 C71.34949595 13.8243592 71.34949595 13.8243592 71.33821106 15.4467926 C71.34218547 16.57515406 71.34615987 17.70351551 71.35025471 18.86606973 C71.3599075 22.66096198 71.34804126 26.4554842 71.33630371 30.25036621 C71.33707375 32.96527187 71.34233242 35.68016466 71.34736633 38.39506531 C71.35686043 45.01167958 71.35024935 51.6281849 71.33810339 58.2447911 C71.32449175 65.94628377 71.32612048 73.6477504 71.32823672 81.34925204 C71.33142745 95.08779687 71.31975371 108.82628987 71.3001709 122.56481934 C71.28116267 135.90370258 71.27408421 149.24252508 71.27966309 162.5814209 C71.28571711 177.09937518 71.28555101 191.61730274 71.27417725 206.1352548 C71.27296993 207.68244421 71.27176395 209.22963363 71.27055931 210.77682304 C71.26995577 211.53811539 71.26935223 212.29940774 71.26873041 213.08376955 C71.26484684 218.45549301 71.26524656 223.82720655 71.26714516 229.19893074 C71.26926445 235.74209179 71.26406316 242.28519958 71.2495316 248.8283456 C71.24227438 252.16845183 71.23928796 255.50841494 71.24277496 258.84853745 C71.24597821 262.46446542 71.23696184 266.08015657 71.22468567 269.69606018 C71.23035465 271.28971227 71.23035465 271.28971227 71.23613816 272.91555935 C71.22738987 274.36294464 71.22738987 274.36294464 71.21846485 275.83957005 C71.21759807 276.67468508 71.2167313 277.50980012 71.21583825 278.37022167 C70.96398926 280.50793457 70.96398926 280.50793457 68.96398926 283.50793457 C65.60131013 284.62882761 63.06489967 284.63492833 59.52062988 284.6373291 C58.87152145 284.63908142 58.22241302 284.64083374 57.55363464 284.64263916 C55.40914228 284.64703844 53.26473246 284.64412646 51.12023926 284.64074707 C49.62955713 284.64142066 48.13887511 284.64239115 46.64819336 284.64364624 C43.52444411 284.6451206 40.40072346 284.64297703 37.27697754 284.63830566 C33.27199273 284.63260853 29.26707494 284.63588893 25.26209259 284.64187813 C22.18405655 284.64549078 19.1060364 284.64434191 16.02799988 284.64175034 C14.55120333 284.64108302 13.07440534 284.64190269 11.59761047 284.64422989 C9.53415093 284.64676793 7.47080008 284.64289955 5.40734863 284.6373291 C4.23281128 284.63653351 3.05827393 284.63573792 1.84814453 284.63491821 C-1.03601074 284.50793457 -1.03601074 284.50793457 -4.03601074 283.50793457 C-5.98225439 280.57757218 -6.2868694 278.20269422 -6.29048634 274.73213959 C-6.29631853 273.76870841 -6.30215072 272.80527722 -6.30815965 271.81265116 C-6.30438033 270.75702022 -6.300601 269.70138928 -6.29670715 268.61376953 C-6.30244547 266.92841103 -6.30244547 266.92841103 -6.30829972 265.20900488 C-6.31864866 261.43034581 -6.31463394 257.65183816 -6.31066895 253.87316895 C-6.31391983 251.16973937 -6.32013212 248.4663183 -6.32615662 245.76289368 C-6.3389153 239.17404674 -6.3406959 232.58524052 -6.33835635 225.99638331 C-6.33657453 220.64229352 -6.33831991 215.28821611 -6.3425808 209.93412781 C-6.34317598 209.17260032 -6.34377117 208.41107283 -6.3443844 207.62646875 C-6.34559612 206.07952281 -6.34681026 204.53257687 -6.34802677 202.98563093 C-6.35890658 188.47410753 -6.35673759 173.96260736 -6.35064193 159.45108265 C-6.34547098 146.16853134 -6.3567321 132.88605333 -6.37574015 119.60351652 C-6.39509995 105.97089402 -6.40337791 92.33830622 -6.3996169 78.70566988 C-6.3977022 71.04957956 -6.40021856 63.39355166 -6.41433144 55.73747253 C-6.42622248 49.22068009 -6.42767574 42.70398848 -6.41554127 36.18719471 C-6.40963672 32.86107568 -6.41021194 29.53529318 -6.42054367 26.20916176 C-6.4309299 22.6066343 -6.42297568 19.00460847 -6.41023254 15.40209961 C-6.41760683 14.34646867 -6.42498111 13.29083774 -6.43257886 12.20321798 C-6.42537232 11.2397868 -6.41816578 10.27635562 -6.41074085 9.28372955 C-6.41079587 8.452032 -6.41085088 7.62033444 -6.41090757 6.76343393 C-5.71627357 2.58429333 -4.16057616 0.69607806 0 0 Z " fill="#FFFFFF" transform="translate(1049.0360107421875,493.4920654296875)"/>
<path d="M0 0 C1.9826677 -0.02659993 3.96519719 -0.0675176 5.94726562 -0.12304688 C8.8091612 -0.20227881 11.66841769 -0.23532271 14.53125 -0.25878906 C15.41270691 -0.29178101 16.29416382 -0.32477295 17.20233154 -0.35876465 C23.23807056 -0.33923104 23.23807056 -0.33923104 26.07273865 1.93461609 C27.61331519 3.70561703 28.9423387 5.5022206 30.234375 7.45996094 C31.01470093 8.48440308 31.01470093 8.48440308 31.81079102 9.52954102 C32.39364868 10.37101685 32.39364868 10.37101685 32.98828125 11.22949219 C33.44323975 11.88103271 33.89819824 12.53257324 34.36694336 13.20385742 C34.8388208 13.88649658 35.31069824 14.56913574 35.796875 15.27246094 C36.8506966 16.78087875 37.90541431 18.28867083 38.9609375 19.79589844 C39.76966309 20.9517041 39.76966309 20.9517041 40.59472656 22.13085938 C43.25494387 25.90966716 45.96152576 29.65451978 48.671875 33.39746094 C49.21142822 34.14294189 49.75098145 34.88842285 50.30688477 35.65649414 C51.402086 37.16913197 52.49754516 38.68158308 53.59326172 40.19384766 C56.31085683 43.94640907 59.02224626 47.70344803 61.734375 51.45996094 C62.26184326 52.19005371 62.78931152 52.92014648 63.33276367 53.67236328 C66.19349194 57.6320325 69.05151399 61.59362521 71.90625 65.55761719 C72.50501953 66.38841797 73.10378906 67.21921875 73.72070312 68.07519531 C74.87639325 69.67882735 76.03136769 71.28297546 77.18554688 72.88769531 C77.70181641 73.60376953 78.21808594 74.31984375 78.75 75.05761719 C79.20665039 75.6919165 79.66330078 76.32621582 80.13378906 76.97973633 C81.7660878 79.19003516 81.7660878 79.19003516 84.421875 80.01074219 C88.3772419 79.2361495 89.37503283 77.23230482 91.63500977 74.02587891 C92.16280029 73.24100098 92.69059082 72.45612305 93.234375 71.64746094 C93.79761475 70.83937988 94.36085449 70.03129883 94.94116211 69.19873047 C96.72401397 66.63128515 98.4815904 64.04800752 100.234375 61.45996094 C101.33943287 59.83858707 102.44489232 58.21748683 103.55078125 56.59667969 C105.17900302 54.20932151 106.80613337 51.82130484 108.42773438 49.42944336 C112.3531538 43.66472166 116.4703589 38.08017367 120.7019043 32.5378418 C125.26468246 26.5202211 129.50923741 20.30086946 133.6953125 14.01660156 C134.200625 13.26443359 134.7059375 12.51226563 135.2265625 11.73730469 C135.66339355 11.07980225 136.10022461 10.4222998 136.55029297 9.74487305 C137.10604004 8.99085205 137.66178711 8.23683105 138.234375 7.45996094 C138.82787498 6.57059845 138.82787498 6.57059845 139.43336487 5.66326904 C141.42890415 2.94809529 142.99357871 0.83979071 146.29107666 -0.16963196 C148.71068875 -0.398488 151.0357163 -0.40686717 153.46484375 -0.32910156 C154.77319939 -0.32491714 154.77319939 -0.32491714 156.10798645 -0.32064819 C157.94286684 -0.307933 159.77769932 -0.2783702 161.61206055 -0.23291016 C164.42396174 -0.16498866 167.2322728 -0.15090873 170.04492188 -0.14550781 C171.83076534 -0.12651384 173.61657966 -0.10448378 175.40234375 -0.07910156 C176.24298874 -0.07262604 177.08363373 -0.06615051 177.94975281 -0.05947876 C183.78523883 0.10759437 183.78523883 0.10759437 185.98817444 1.83589172 C187.234375 3.45996094 187.234375 3.45996094 187.09082031 5.89672852 C186.20760388 8.5400835 185.21290211 10.26145398 183.53125 12.47167969 C182.68904907 13.59425171 182.68904907 13.59425171 181.82983398 14.73950195 C181.22083252 15.53412842 180.61183105 16.32875488 179.984375 17.14746094 C178.69838727 18.85777356 177.4132503 20.56872616 176.12890625 22.28027344 C175.47615723 23.14555664 174.8234082 24.01083984 174.15087891 24.90234375 C171.27500386 28.74026311 168.47057047 32.62808221 165.671875 36.52246094 C164.59769885 38.01337705 163.52348005 39.50426243 162.44921875 40.99511719 C161.91925293 41.73133301 161.38928711 42.46754883 160.84326172 43.22607422 C158.14425372 46.97355877 155.43898616 50.71651939 152.734375 54.45996094 C151.65101196 55.95993948 150.56767862 57.45993948 149.484375 58.95996094 C147.31770833 61.95996094 145.15104167 64.95996094 142.984375 67.95996094 C142.44780273 68.70294434 141.91123047 69.44592773 141.35839844 70.21142578 C140.27846302 71.70664605 139.19838561 73.20176378 138.11816406 74.69677734 C135.3566506 78.51906528 132.59786687 82.34327677 129.84375 86.17089844 C129.28582764 86.9453833 128.72790527 87.71986816 128.15307617 88.51782227 C127.05299577 90.04538088 125.95417013 91.57384401 124.85668945 93.10327148 C122.43006442 96.47352182 119.98293785 99.8144777 117.41796875 103.08105469 C116.99290039 103.62648926 116.56783203 104.17192383 116.12988281 104.73388672 C115.01230869 106.15728043 113.87982963 107.5689375 112.74609375 108.97949219 C110.9387951 111.94495638 110.51526391 113.05684368 111.234375 116.45996094 C112.88114356 119.00874327 114.53393187 121.2908092 116.421875 123.64746094 C117.53287298 125.07979729 118.64218913 126.51343941 119.75 127.94824219 C120.32685547 128.69025879 120.90371094 129.43227539 121.49804688 130.19677734 C124.30246767 133.85214584 126.9870936 137.59130045 129.671875 141.33496094 C130.48156738 142.4598291 130.48156738 142.4598291 131.30761719 143.60742188 C132.95108962 145.89072691 134.5927626 148.17531838 136.234375 150.45996094 C138.37839637 153.44043617 140.52425606 156.41957695 142.671875 159.39746094 C143.20329102 160.13432129 143.73470703 160.87118164 144.28222656 161.63037109 C148.29415812 167.18266242 152.35095598 172.70081964 156.421875 178.20996094 C160.82108103 184.163945 165.18339571 190.13975964 169.47070312 196.17480469 C172.36139092 200.24353055 175.27691789 204.29355749 178.2043457 208.3359375 C179.88147419 210.65411765 181.55221468 212.97680372 183.22265625 215.29980469 C185.00416347 217.77340824 186.80434192 220.22709824 188.65234375 222.65136719 C189.29816406 223.51632812 189.94398438 224.38128906 190.609375 225.27246094 C191.15335938 225.98015625 191.69734375 226.68785156 192.2578125 227.41699219 C193.56284567 230.14712159 193.20104586 231.64130185 192.234375 234.45996094 C189.97973422 235.58728133 188.66033392 235.62073064 186.15527344 235.68457031 C184.89321075 235.71834778 184.89321075 235.71834778 183.60565186 235.75280762 C179.75102755 235.82385039 175.89659565 235.88133984 172.04150391 235.91992188 C170.0103395 235.94652393 167.97931007 235.98744381 165.94873047 236.04296875 C163.01734947 236.12218237 160.08854497 236.15524204 157.15625 236.17871094 C156.25291931 236.21170288 155.34958862 236.24469482 154.41888428 236.27868652 C148.23795547 236.259152 148.23795547 236.259152 145.38258362 233.98530579 C143.84235676 232.21497764 142.5200052 230.42092021 141.234375 228.45996094 C140.71415771 227.77699951 140.19394043 227.09403809 139.65795898 226.39038086 C139.26938721 225.82939697 138.88081543 225.26841309 138.48046875 224.69042969 C138.02542969 224.03880859 137.57039063 223.3871875 137.1015625 222.71582031 C136.39386719 221.69198242 136.39386719 221.69198242 135.671875 220.64746094 C134.6193939 219.14031861 133.56597667 217.63382965 132.51171875 216.12792969 C131.97272949 215.35755371 131.43374023 214.58717773 130.87841797 213.79345703 C128.19885681 209.99018327 125.46653589 206.22553619 122.734375 202.45996094 C118.52711956 196.65458618 114.35843273 190.82472775 110.234375 184.95996094 C105.97973186 178.91213792 101.68732738 172.8930647 97.359375 166.89746094 C96.57433594 165.80884766 96.57433594 165.80884766 95.7734375 164.69824219 C92.31224876 159.91261898 88.79282179 155.17367561 85.234375 150.45996094 C82.90068123 150.47807767 82.90068123 150.47807767 80.234375 151.45996094 C78.36908418 153.53756128 76.85555934 155.4823106 75.296875 157.77246094 C74.82870361 158.43544189 74.36053223 159.09842285 73.87817383 159.78149414 C72.85733723 161.23133211 71.84320914 162.68591099 70.83496094 164.14453125 C69.20231505 166.5063393 67.55257876 168.85535346 65.8984375 171.20214844 C62.3272331 176.2766184 58.77981549 181.36747152 55.234375 186.45996094 C35.66394971 214.55351052 35.66394971 214.55351052 29.80224609 222.19018555 C28.12249713 224.49084768 28.12249713 224.49084768 26.84228516 227.40356445 C24.94157543 230.95431888 23.46971691 233.0249801 20.234375 235.45996094 C13.16918854 237.34777317 5.58591118 236.57786533 -1.640625 236.27246094 C-3.65876836 236.23439804 -5.67700856 236.20114707 -7.6953125 236.17285156 C-11.37081904 236.09695066 -15.04518913 236.01710355 -18.71826172 235.86157227 C-19.45358124 235.83283524 -20.18890076 235.80409821 -20.94650269 235.77449036 C-22.765625 235.45996094 -22.765625 235.45996094 -24.765625 233.45996094 C-24.69434196 227.06824838 -22.16433006 223.64727226 -18.328125 218.89746094 C-17.22256484 217.47797224 -16.11841975 216.05738039 -15.015625 214.63574219 C-14.18804688 213.5792749 -14.18804688 213.5792749 -13.34375 212.50146484 C-11.08998256 209.58593215 -8.95202434 206.59575847 -6.828125 203.58496094 C-6.01202246 202.43500576 -5.19560908 201.28527112 -4.37890625 200.13574219 C-3.74976318 199.24943115 -3.74976318 199.24943115 -3.10791016 198.34521484 C4.55740781 187.57919351 12.35873876 176.91336774 20.21386719 166.28540039 C23.9933213 161.16479866 27.71851959 156.0102356 31.39819336 150.81762695 C35.59421873 144.9147438 39.91077665 139.10089748 44.23828125 133.29394531 C45.91953546 131.02715084 47.5771155 128.74433135 49.234375 126.45996094 C50.12092773 125.28941162 50.12092773 125.28941162 51.02539062 124.09521484 C54.2869178 119.66317 54.2869178 119.66317 55.46875 114.41308594 C53.71136236 110.20870284 51.232304 106.82549095 48.484375 103.20996094 C47.29137691 101.60080072 46.09867678 99.99141956 44.90625 98.38183594 C44.29458984 97.56392578 43.68292969 96.74601563 43.05273438 95.90332031 C40.2369758 92.11973925 37.48731441 88.28935137 34.734375 84.45996094 C33.6527311 82.96098344 32.57069854 81.46228632 31.48828125 79.96386719 C30.95219238 79.22152832 30.41610352 78.47918945 29.86376953 77.71435547 C28.22718351 75.45001095 26.58846335 73.18722513 24.94921875 70.92480469 C19.16572583 62.93807637 13.42628334 54.92387809 7.75585938 46.85644531 C4.64546881 42.43813756 1.49928188 38.04794992 -1.67529297 33.67553711 C-3.84443916 30.68583207 -6.00176915 27.68770971 -8.15771484 24.68847656 C-9.24163434 23.18619639 -10.3306212 21.68756106 -11.42431641 20.19238281 C-13.01067895 18.02062748 -14.5773856 15.83589461 -16.140625 13.64746094 C-16.62345947 12.99575928 -17.10629395 12.34405762 -17.60375977 11.67260742 C-19.59881859 8.84488011 -20.78447012 7.09298549 -20.6796875 3.57324219 C-18.2099644 -2.13667318 -5.49907529 0.0563728 0 0 Z " fill="#FFFFFF" transform="translate(1176.765625,543.5400390625)"/>
<path d="M0 0 C1.18285827 -0.00596161 1.18285827 -0.00596161 2.38961267 -0.01204365 C5.04064441 -0.02169331 7.69114604 -0.00983262 10.34216309 0.00190735 C12.23919372 -0.00051974 14.13622308 -0.00423825 16.0332489 -0.00915527 C21.19226706 -0.01857927 26.351096 -0.00912616 31.51009941 0.00417686 C36.90191561 0.01547252 42.29372224 0.01138531 47.68554688 0.00942993 C56.74120179 0.00854636 65.79678193 0.01964057 74.85241699 0.03804016 C85.33103355 0.05920873 95.80954054 0.06271803 106.28817415 0.0564782 C116.35661552 0.05078895 126.42501819 0.05642503 136.49345398 0.06765175 C140.78367323 0.07230355 145.07386887 0.07316907 149.36408997 0.0710659 C154.41359779 0.06918606 159.46299367 0.07726347 164.51247597 0.0931263 C166.36887969 0.09737881 168.22529476 0.09821324 170.08170128 0.0954361 C172.60952316 0.09222751 175.13700774 0.10126251 177.66479492 0.11352539 C178.40496306 0.10974607 179.1451312 0.10596674 179.90772867 0.10207289 C183.60503134 0.13395166 185.1700471 0.26598822 188.33239746 2.3742218 C188.62456615 4.90469003 188.72872886 7.1871506 188.69567871 9.7179718 C188.69642647 10.80531616 188.69642647 10.80531616 188.69718933 11.91462708 C188.69484788 13.44789876 188.68511502 14.98117422 188.6685791 16.51435852 C188.6449887 18.86513025 188.64801668 21.21476809 188.65466309 23.56562805 C188.64908631 25.05391608 188.64197643 26.54219932 188.63317871 28.0304718 C188.63409012 28.73570984 188.63500153 29.44094788 188.63594055 30.16755676 C188.56342967 35.14318959 188.56342967 35.14318959 186.33239746 37.3742218 C183.33398438 37.63250732 183.33398438 37.63250732 179.43591309 37.64546204 C178.72682297 37.65068878 178.01773285 37.65591553 177.28715515 37.66130066 C175.7457145 37.67155161 174.20423912 37.67732297 172.6627655 37.67918205 C170.22553212 37.68283521 167.78870951 37.69953135 165.3515625 37.71994019 C158.42191181 37.77546146 151.49220052 37.80608305 144.56237793 37.83052063 C140.32595819 37.84636282 136.08983032 37.876545 131.8535614 37.91528511 C130.23641551 37.92696391 128.61921748 37.93286571 127.00202942 37.93296623 C124.744002 37.9331575 122.48678405 37.95136413 120.22888184 37.97358704 C118.94251831 37.97865768 117.65615479 37.98372833 116.33081055 37.98895264 C115.34133423 38.11609146 114.35185791 38.24323029 113.33239746 38.3742218 C110.88863773 42.0398614 111.04841116 44.77250428 111.06738281 49.0105896 C111.06300154 49.7957838 111.05862027 50.58097799 111.05410624 51.38996595 C111.04175309 54.02938795 111.04359657 56.66861207 111.04528809 59.30805969 C111.0392661 61.19686173 111.03234242 63.08566109 111.02458191 64.97445679 C111.00967577 69.0456121 111.00093947 73.11671821 110.99687195 77.18789864 C110.99017162 83.61988379 110.96843375 90.05176334 110.94433594 96.48370361 C110.89115014 111.29695491 110.85780011 126.11023874 110.82457733 140.92354584 C110.79392746 154.50030802 110.75914791 168.07702502 110.70826674 181.65372843 C110.68485793 188.05330482 110.67116223 194.45280781 110.66477203 200.85242283 C110.65885271 204.8262485 110.6447735 208.80001428 110.62842751 212.77380943 C110.62252896 214.62256725 110.62008392 216.47133965 110.62126732 218.32010651 C110.62241867 220.83514556 110.61147334 223.34984462 110.59741211 225.86483765 C110.60071108 226.60402768 110.60401006 227.34321771 110.607409 228.10480744 C110.56058331 233.14603595 110.56058331 233.14603595 108.33239746 235.3742218 C105.41490611 235.57420504 102.59437817 235.65397067 99.67614746 235.6398468 C98.81807495 235.64176025 97.96000244 235.64367371 97.07592773 235.64564514 C95.26021024 235.64700724 93.44448301 235.64330908 91.62878418 235.63496399 C88.84356896 235.62426472 86.05899878 235.63485833 83.27380371 235.6476593 C81.51208353 235.64633771 79.75036376 235.64377533 77.98864746 235.6398468 C76.73392639 235.64591949 76.73392639 235.64591949 75.45385742 235.65211487 C69.5623158 235.60414014 69.5623158 235.60414014 67.33239746 233.3742218 C67.13145526 230.8207996 67.05605044 228.37506026 67.06738281 225.82014465 C67.06081091 224.63750967 67.06081091 224.63750967 67.05410624 223.43098307 C67.04173058 220.77463605 67.04359809 218.11848504 67.04528809 215.46211243 C67.03926748 213.56360581 67.03234416 211.66510186 67.02458191 209.76660156 C67.00966477 205.67141941 67.00093671 201.57628626 66.99687195 197.4810791 C66.99017648 191.01136869 66.96844398 184.54176351 66.94433594 178.07209778 C66.8911265 163.17039116 66.85780308 148.26865211 66.82457733 133.36688995 C66.79392983 119.71269833 66.75914641 106.05855165 66.70826674 92.40441847 C66.68485503 85.96720974 66.67116143 79.53007399 66.66477203 73.09282684 C66.65885261 69.09496428 66.64477313 65.09716123 66.62842751 61.09932899 C66.62252887 59.23928407 66.62008394 57.37922466 66.62126732 55.51917076 C66.62241866 52.98875227 66.6114734 50.4586717 66.59741211 47.92829895 C66.60071108 47.18453585 66.60401006 46.44077275 66.607409 45.67447138 C66.69430018 41.5720132 66.69430018 41.5720132 64.33239746 38.3742218 C61.18849387 38.05485095 61.18849387 38.05485095 57.43591309 38.08711243 C56.72682297 38.08027939 56.01773285 38.07344635 55.28715515 38.06640625 C53.74572427 38.05280432 52.20424808 38.04375999 50.6627655 38.03869629 C48.22553663 38.03042732 45.78868611 38.00994233 43.3515625 37.98616028 C38.17856336 37.93787372 33.00552671 37.90496795 27.83239746 37.8742218 C21.83933193 37.83860242 15.84645125 37.79676134 9.8535614 37.73828125 C7.44824825 37.71815671 5.04307526 37.70988215 2.63769531 37.70198059 C1.16808557 37.68901242 -0.30151944 37.67549274 -1.77111816 37.66133118 C-3.05748169 37.65403992 -4.34384521 37.64674866 -5.66918945 37.63923645 C-8.66760254 37.3742218 -8.66760254 37.3742218 -10.66760254 35.3742218 C-11.06788672 30.83161903 -10.99660904 26.2745554 -10.98327637 21.71626282 C-10.98011931 19.44876433 -11.00356014 17.1825742 -11.02893066 14.91523743 C-11.03120395 13.47578595 -11.03190702 12.03633096 -11.03088379 10.59687805 C-11.03386475 9.28469299 -11.0368457 7.97250793 -11.03991699 6.62055969 C-10.66760254 3.3742218 -10.66760254 3.3742218 -9.62355804 1.69471455 C-6.60937294 -0.34020371 -3.51284433 -0.03499842 0 0 Z " fill="#FFFFFF" transform="translate(2087.6676025390625,543.6257781982422)"/>
<path d="M0 0 C4.57121754 3.07612007 7.09545362 7.43309475 9.515625 12.2734375 C10.63179162 18.47436316 10.11617467 24.18864947 6.953125 29.7109375 C3.67769919 34.41460131 -0.44508204 37.57283985 -5.921875 39.3984375 C-13.57840969 40.38184563 -19.61530233 38.88236594 -25.921875 34.3984375 C-31.47553675 28.57728287 -32.2206469 23.08379054 -32.13671875 15.34375 C-31.76983595 10.3141203 -29.88936911 7.55943043 -26.734375 3.7734375 C-18.417998 -3.24928085 -9.96007181 -4.91038505 0 0 Z " fill="#FFFFFF" transform="translate(362.921875,561.6015625)"/>
<path d="M0 0 C4.77478856 4.09267591 7.35453728 7.57588518 8.4921875 13.78125 C8.77872074 19.10739727 7.47681209 23.99339482 4.0703125 28.14453125 C0.06415243 31.80349078 -3.94106769 34.20589445 -9.50390625 34.27734375 C-15.08745904 33.90888595 -18.8462154 32.53558883 -23.375 29.25 C-27.51495124 24.02058791 -28.77232412 20.05505523 -28.6484375 13.40234375 C-28.05636938 8.74192185 -26.11967495 4.88537977 -22.69140625 1.671875 C-15.65425593 -3.5946375 -7.88992861 -4.0910741 0 0 Z " fill="#FFFFFF" transform="translate(312.375,502.75)"/>
<path d="M0 0 C4.40070981 2.96183654 7.18668572 5.96893571 8.4375 11.24609375 C9.28806009 16.64673745 8.98195658 20.47428739 6.21875 25.23046875 C3.69915546 28.5949125 0.67976145 31.0995724 -3.09765625 32.98828125 C-9.67866803 33.76382136 -14.99736403 33.52645807 -20.4375 29.52734375 C-23.94450395 26.2761448 -25.77774147 23.3049055 -26.4375 18.52734375 C-26.63355929 13.3043242 -26.15817033 9.3750181 -23.09765625 4.98828125 C-16.27054434 -1.54199971 -8.99475299 -4.33825144 0 0 Z " fill="#FFFFFF" transform="translate(498.09765625,340.01171875)"/>
<path d="M0 0 C3.62011046 2.33296007 5.89022378 4.96794755 7.8125 8.8125 C8.62139711 15.32345871 7.71319977 19.5412841 3.8125 24.8125 C0.00557154 28.28352301 -3.880048 28.26624094 -8.8203125 28.09765625 C-13.3741506 27.54909159 -15.48817829 25.60894973 -18.4375 22.25 C-21.39054527 18.13682981 -21.6988982 14.79630796 -21.1875 9.8125 C-19.47021412 5.11255971 -17.32143334 2.60290501 -13.1875 -0.1875 C-8.48227445 -1.75590852 -4.66101184 -1.73645539 0 0 Z " fill="#FFFFFF" transform="translate(349.1875,407.1875)"/>
<path d="M0 0 C4.45800073 2.18847308 6.95199316 4.47282698 9 9 C10.42775549 13.58921407 9.88869661 16.77436807 8.08984375 21.1015625 C5.76370994 25.15353752 2.42591161 27.52469613 -2 29 C-6.95093505 29.47605145 -10.28781386 28.97243438 -14.421875 26.328125 C-18.32625168 23.04226343 -19.82439477 19.42992833 -20.4375 14.4375 C-19.78019761 9.27298119 -18.3122195 6.18419809 -14.4375 2.6875 C-9.71826135 -0.57966522 -5.6451292 -0.62434609 0 0 Z " fill="#FFFFFF" transform="translate(305,326)"/>
</svg>
